# xmcd CD database file
#
# Track frame offsets:
#	182
#	26595
#	48052
#	80595
#	95520
#	115640
#	132450
#	148577
#	171185
#	220135
#	236670
#	253347
#	270720
#	284500
#	301085
#	316707
#
# Disc length: 4574 seconds
#
# Revision: 7
# Processed by: cddbd v1.5.1PL0 Copyright (c) Steve Scherf et al.
# Submitted via: CDex 1.50beta9
#
DISCID=e111dc10
DTITLE=The Allman Brothers Band - Dreams (4)
DYEAR=1989
DGENRE=Southern Rock
TTITLE0=Can't Lose What You Never Had 
TTITLE1=Come And Go Blues 
TTITLE2=Bougainvillea 
TTITLE3=Can You Fool 
TTITLE4=Good Time Feeling
TTITLE5=Crazy Love
TTITLE6=Can't Take It With You 
TTITLE7=Just Ain't Easy 
TTITLE8=In Memory Of Elizabeth Reed 
TTITLE9=Angeline
TTITLE10=Things You Used To Do 
TTITLE11=Nancy 
TTITLE12=Rain
TTITLE13=I'm No Angel
TTITLE14=Demons 
TTITLE15=Duane's Tune
EXTD=YEAR: 1989
EXTT0=
EXTT1=
EXTT2=
EXTT3=
EXTT4=
EXTT5=
EXTT6=
EXTT7=
EXTT8=
EXTT9=
EXTT10=
EXTT11=
EXTT12=
EXTT13=
EXTT14=
EXTT15=
PLAYORDER=
